<?xml version="1.0" encoding="utf-8" standalone="no"?>
<!DOCTYPE svg PUBLIC "-//W3C//DTD SVG 1.1//EN"
  "http://www.w3.org/Graphics/SVG/1.1/DTD/svg11.dtd">
<svg height="288pt" version="1.1" viewBox="0 0 432 288" width="432pt" xmlns="http://www.w3.org/2000/svg" xmlns:xlink="http://www.w3.org/1999/xlink">
 <metadata>
  <rdf:RDF xmlns:cc="http://creativecommons.org/ns#" xmlns:dc="http://purl.org/dc/elements/1.1/" xmlns:rdf="http://www.w3.org/1999/02/22-rdf-syntax-ns#">
   <cc:Work>
    <dc:type rdf:resource="http://purl.org/dc/dcmitype/StillImage"/>
    <dc:date>2021-09-16T11:25:41.959378</dc:date>
    <dc:format>image/svg+xml</dc:format>
    <dc:creator>
     <cc:Agent>
      <dc:title>Matplotlib v3.4.3, https://matplotlib.org/</dc:title>
     </cc:Agent>
    </dc:creator>
   </cc:Work>
  </rdf:RDF>
 </metadata>
 <defs>
  <style type="text/css">*{stroke-linecap:butt;stroke-linejoin:round;}</style>
 </defs>
 <g id="figure_1">
  <g id="patch_1">
   <path d="M 0 288 
L 432 288 
L 432 0 
L 0 0 
z
" style="fill:none;"/>
  </g>
  <g id="axes_1">
   <g id="patch_2">
    <path d="M 54 252 
L 388.8 252 
L 388.8 34.56 
L 54 34.56 
z
" style="fill:#ffffff;"/>
   </g>
   <g id="PathCollection_1">
    <defs>
     <path d="M 0 1.118034 
C 0.296506 1.118034 0.580908 1.000231 0.790569 0.790569 
C 1.000231 0.580908 1.118034 0.296506 1.118034 0 
C 1.118034 -0.296506 1.000231 -0.580908 0.790569 -0.790569 
C 0.580908 -1.000231 0.296506 -1.118034 0 -1.118034 
C -0.296506 -1.118034 -0.580908 -1.000231 -0.790569 -0.790569 
C -1.000231 -0.580908 -1.118034 -0.296506 -1.118034 0 
C -1.118034 0.296506 -1.000231 0.580908 -0.790569 0.790569 
C -0.580908 1.000231 -0.296506 1.118034 0 1.118034 
z
" id="m0edde70c32" style="stroke:#ffffff;stroke-width:0.178885;"/>
    </defs>
    <g clip-path="url(#pf958fbeafc)">
     <use style="fill:#1f77b4;stroke:#ffffff;stroke-width:0.178885;" x="69.218182" xlink:href="#m0edde70c32" y="242.116364"/>
     <use style="fill:#1f77b4;stroke:#ffffff;stroke-width:0.178885;" x="72.261818" xlink:href="#m0edde70c32" y="242.116364"/>
     <use style="fill:#1f77b4;stroke:#ffffff;stroke-width:0.178885;" x="75.305455" xlink:href="#m0edde70c32" y="242.116364"/>
     <use style="fill:#1f77b4;stroke:#ffffff;stroke-width:0.178885;" x="78.349091" xlink:href="#m0edde70c32" y="242.116364"/>
     <use style="fill:#1f77b4;stroke:#ffffff;stroke-width:0.178885;" x="81.392727" xlink:href="#m0edde70c32" y="242.116364"/>
     <use style="fill:#1f77b4;stroke:#ffffff;stroke-width:0.178885;" x="84.436364" xlink:href="#m0edde70c32" y="241.296145"/>
     <use style="fill:#1f77b4;stroke:#ffffff;stroke-width:0.178885;" x="87.48" xlink:href="#m0edde70c32" y="241.296145"/>
     <use style="fill:#1f77b4;stroke:#ffffff;stroke-width:0.178885;" x="90.523636" xlink:href="#m0edde70c32" y="241.296145"/>
     <use style="fill:#1f77b4;stroke:#ffffff;stroke-width:0.178885;" x="93.567273" xlink:href="#m0edde70c32" y="241.296145"/>
     <use style="fill:#1f77b4;stroke:#ffffff;stroke-width:0.178885;" x="96.610909" xlink:href="#m0edde70c32" y="241.296145"/>
     <use style="fill:#1f77b4;stroke:#ffffff;stroke-width:0.178885;" x="99.654545" xlink:href="#m0edde70c32" y="239.655707"/>
     <use style="fill:#1f77b4;stroke:#ffffff;stroke-width:0.178885;" x="102.698182" xlink:href="#m0edde70c32" y="239.655707"/>
     <use style="fill:#1f77b4;stroke:#ffffff;stroke-width:0.178885;" x="105.741818" xlink:href="#m0edde70c32" y="239.655707"/>
     <use style="fill:#1f77b4;stroke:#ffffff;stroke-width:0.178885;" x="108.785455" xlink:href="#m0edde70c32" y="239.655707"/>
     <use style="fill:#1f77b4;stroke:#ffffff;stroke-width:0.178885;" x="111.829091" xlink:href="#m0edde70c32" y="239.655707"/>
     <use style="fill:#1f77b4;stroke:#ffffff;stroke-width:0.178885;" x="114.872727" xlink:href="#m0edde70c32" y="238.01527"/>
     <use style="fill:#1f77b4;stroke:#ffffff;stroke-width:0.178885;" x="117.916364" xlink:href="#m0edde70c32" y="238.01527"/>
     <use style="fill:#1f77b4;stroke:#ffffff;stroke-width:0.178885;" x="120.96" xlink:href="#m0edde70c32" y="238.01527"/>
     <use style="fill:#1f77b4;stroke:#ffffff;stroke-width:0.178885;" x="124.003636" xlink:href="#m0edde70c32" y="238.01527"/>
     <use style="fill:#1f77b4;stroke:#ffffff;stroke-width:0.178885;" x="127.047273" xlink:href="#m0edde70c32" y="238.01527"/>
     <use style="fill:#1f77b4;stroke:#ffffff;stroke-width:0.178885;" x="130.090909" xlink:href="#m0edde70c32" y="235.554613"/>
     <use style="fill:#1f77b4;stroke:#ffffff;stroke-width:0.178885;" x="133.134545" xlink:href="#m0edde70c32" y="235.554613"/>
     <use style="fill:#1f77b4;stroke:#ffffff;stroke-width:0.178885;" x="136.178182" xlink:href="#m0edde70c32" y="235.554613"/>
     <use style="fill:#1f77b4;stroke:#ffffff;stroke-width:0.178885;" x="139.221818" xlink:href="#m0edde70c32" y="235.554613"/>
     <use style="fill:#1f77b4;stroke:#ffffff;stroke-width:0.178885;" x="142.265455" xlink:href="#m0edde70c32" y="235.554613"/>
     <use style="fill:#1f77b4;stroke:#ffffff;stroke-width:0.178885;" x="145.309091" xlink:href="#m0edde70c32" y="232.273738"/>
     <use style="fill:#1f77b4;stroke:#ffffff;stroke-width:0.178885;" x="148.352727" xlink:href="#m0edde70c32" y="232.273738"/>
     <use style="fill:#1f77b4;stroke:#ffffff;stroke-width:0.178885;" x="151.396364" xlink:href="#m0edde70c32" y="232.273738"/>
     <use style="fill:#1f77b4;stroke:#ffffff;stroke-width:0.178885;" x="154.44" xlink:href="#m0edde70c32" y="232.273738"/>
     <use style="fill:#1f77b4;stroke:#ffffff;stroke-width:0.178885;" x="157.483636" xlink:href="#m0edde70c32" y="232.273738"/>
     <use style="fill:#1f77b4;stroke:#ffffff;stroke-width:0.178885;" x="160.527273" xlink:href="#m0edde70c32" y="228.172644"/>
     <use style="fill:#1f77b4;stroke:#ffffff;stroke-width:0.178885;" x="163.570909" xlink:href="#m0edde70c32" y="228.172644"/>
     <use style="fill:#1f77b4;stroke:#ffffff;stroke-width:0.178885;" x="166.614545" xlink:href="#m0edde70c32" y="228.172644"/>
     <use style="fill:#1f77b4;stroke:#ffffff;stroke-width:0.178885;" x="169.658182" xlink:href="#m0edde70c32" y="228.172644"/>
     <use style="fill:#1f77b4;stroke:#ffffff;stroke-width:0.178885;" x="172.701818" xlink:href="#m0edde70c32" y="228.172644"/>
     <use style="fill:#1f77b4;stroke:#ffffff;stroke-width:0.178885;" x="175.745455" xlink:href="#m0edde70c32" y="223.251332"/>
     <use style="fill:#1f77b4;stroke:#ffffff;stroke-width:0.178885;" x="178.789091" xlink:href="#m0edde70c32" y="223.251332"/>
     <use style="fill:#1f77b4;stroke:#ffffff;stroke-width:0.178885;" x="181.832727" xlink:href="#m0edde70c32" y="223.251332"/>
     <use style="fill:#1f77b4;stroke:#ffffff;stroke-width:0.178885;" x="184.876364" xlink:href="#m0edde70c32" y="223.251332"/>
     <use style="fill:#1f77b4;stroke:#ffffff;stroke-width:0.178885;" x="187.92" xlink:href="#m0edde70c32" y="223.251332"/>
     <use style="fill:#1f77b4;stroke:#ffffff;stroke-width:0.178885;" x="190.963636" xlink:href="#m0edde70c32" y="217.5098"/>
     <use style="fill:#1f77b4;stroke:#ffffff;stroke-width:0.178885;" x="194.007273" xlink:href="#m0edde70c32" y="217.5098"/>
     <use style="fill:#1f77b4;stroke:#ffffff;stroke-width:0.178885;" x="197.050909" xlink:href="#m0edde70c32" y="217.5098"/>
     <use style="fill:#1f77b4;stroke:#ffffff;stroke-width:0.178885;" x="200.094545" xlink:href="#m0edde70c32" y="217.5098"/>
     <use style="fill:#1f77b4;stroke:#ffffff;stroke-width:0.178885;" x="203.138182" xlink:href="#m0edde70c32" y="217.5098"/>
     <use style="fill:#1f77b4;stroke:#ffffff;stroke-width:0.178885;" x="206.181818" xlink:href="#m0edde70c32" y="210.94805"/>
     <use style="fill:#1f77b4;stroke:#ffffff;stroke-width:0.178885;" x="209.225455" xlink:href="#m0edde70c32" y="210.94805"/>
     <use style="fill:#1f77b4;stroke:#ffffff;stroke-width:0.178885;" x="212.269091" xlink:href="#m0edde70c32" y="210.94805"/>
     <use style="fill:#1f77b4;stroke:#ffffff;stroke-width:0.178885;" x="215.312727" xlink:href="#m0edde70c32" y="210.94805"/>
     <use style="fill:#1f77b4;stroke:#ffffff;stroke-width:0.178885;" x="218.356364" xlink:href="#m0edde70c32" y="210.94805"/>
     <use style="fill:#1f77b4;stroke:#ffffff;stroke-width:0.178885;" x="221.4" xlink:href="#m0edde70c32" y="202.745862"/>
     <use style="fill:#1f77b4;stroke:#ffffff;stroke-width:0.178885;" x="224.443636" xlink:href="#m0edde70c32" y="202.745862"/>
     <use style="fill:#1f77b4;stroke:#ffffff;stroke-width:0.178885;" x="227.487273" xlink:href="#m0edde70c32" y="202.745862"/>
     <use style="fill:#1f77b4;stroke:#ffffff;stroke-width:0.178885;" x="230.530909" xlink:href="#m0edde70c32" y="202.745862"/>
     <use style="fill:#1f77b4;stroke:#ffffff;stroke-width:0.178885;" x="233.574545" xlink:href="#m0edde70c32" y="202.745862"/>
     <use style="fill:#1f77b4;stroke:#ffffff;stroke-width:0.178885;" x="236.618182" xlink:href="#m0edde70c32" y="193.723455"/>
     <use style="fill:#1f77b4;stroke:#ffffff;stroke-width:0.178885;" x="239.661818" xlink:href="#m0edde70c32" y="193.723455"/>
     <use style="fill:#1f77b4;stroke:#ffffff;stroke-width:0.178885;" x="242.705455" xlink:href="#m0edde70c32" y="193.723455"/>
     <use style="fill:#1f77b4;stroke:#ffffff;stroke-width:0.178885;" x="245.749091" xlink:href="#m0edde70c32" y="193.723455"/>
     <use style="fill:#1f77b4;stroke:#ffffff;stroke-width:0.178885;" x="248.792727" xlink:href="#m0edde70c32" y="193.723455"/>
     <use style="fill:#1f77b4;stroke:#ffffff;stroke-width:0.178885;" x="251.836364" xlink:href="#m0edde70c32" y="183.060611"/>
     <use style="fill:#1f77b4;stroke:#ffffff;stroke-width:0.178885;" x="254.88" xlink:href="#m0edde70c32" y="183.060611"/>
     <use style="fill:#1f77b4;stroke:#ffffff;stroke-width:0.178885;" x="257.923636" xlink:href="#m0edde70c32" y="183.060611"/>
     <use style="fill:#1f77b4;stroke:#ffffff;stroke-width:0.178885;" x="260.967273" xlink:href="#m0edde70c32" y="183.060611"/>
     <use style="fill:#1f77b4;stroke:#ffffff;stroke-width:0.178885;" x="264.010909" xlink:href="#m0edde70c32" y="183.060611"/>
     <use style="fill:#1f77b4;stroke:#ffffff;stroke-width:0.178885;" x="267.054545" xlink:href="#m0edde70c32" y="171.577548"/>
     <use style="fill:#1f77b4;stroke:#ffffff;stroke-width:0.178885;" x="270.098182" xlink:href="#m0edde70c32" y="171.577548"/>
     <use style="fill:#1f77b4;stroke:#ffffff;stroke-width:0.178885;" x="273.141818" xlink:href="#m0edde70c32" y="171.577548"/>
     <use style="fill:#1f77b4;stroke:#ffffff;stroke-width:0.178885;" x="276.185455" xlink:href="#m0edde70c32" y="171.577548"/>
     <use style="fill:#1f77b4;stroke:#ffffff;stroke-width:0.178885;" x="279.229091" xlink:href="#m0edde70c32" y="171.577548"/>
     <use style="fill:#1f77b4;stroke:#ffffff;stroke-width:0.178885;" x="282.272727" xlink:href="#m0edde70c32" y="158.454048"/>
     <use style="fill:#1f77b4;stroke:#ffffff;stroke-width:0.178885;" x="285.316364" xlink:href="#m0edde70c32" y="158.454048"/>
     <use style="fill:#1f77b4;stroke:#ffffff;stroke-width:0.178885;" x="288.36" xlink:href="#m0edde70c32" y="158.454048"/>
     <use style="fill:#1f77b4;stroke:#ffffff;stroke-width:0.178885;" x="291.403636" xlink:href="#m0edde70c32" y="158.454048"/>
     <use style="fill:#1f77b4;stroke:#ffffff;stroke-width:0.178885;" x="294.447273" xlink:href="#m0edde70c32" y="158.454048"/>
     <use style="fill:#1f77b4;stroke:#ffffff;stroke-width:0.178885;" x="297.490909" xlink:href="#m0edde70c32" y="143.690109"/>
     <use style="fill:#1f77b4;stroke:#ffffff;stroke-width:0.178885;" x="300.534545" xlink:href="#m0edde70c32" y="143.690109"/>
     <use style="fill:#1f77b4;stroke:#ffffff;stroke-width:0.178885;" x="303.578182" xlink:href="#m0edde70c32" y="143.690109"/>
     <use style="fill:#1f77b4;stroke:#ffffff;stroke-width:0.178885;" x="306.621818" xlink:href="#m0edde70c32" y="143.690109"/>
     <use style="fill:#1f77b4;stroke:#ffffff;stroke-width:0.178885;" x="309.665455" xlink:href="#m0edde70c32" y="143.690109"/>
     <use style="fill:#1f77b4;stroke:#ffffff;stroke-width:0.178885;" x="312.709091" xlink:href="#m0edde70c32" y="127.285734"/>
     <use style="fill:#1f77b4;stroke:#ffffff;stroke-width:0.178885;" x="315.752727" xlink:href="#m0edde70c32" y="127.285734"/>
     <use style="fill:#1f77b4;stroke:#ffffff;stroke-width:0.178885;" x="318.796364" xlink:href="#m0edde70c32" y="127.285734"/>
     <use style="fill:#1f77b4;stroke:#ffffff;stroke-width:0.178885;" x="321.84" xlink:href="#m0edde70c32" y="127.285734"/>
     <use style="fill:#1f77b4;stroke:#ffffff;stroke-width:0.178885;" x="324.883636" xlink:href="#m0edde70c32" y="127.285734"/>
     <use style="fill:#1f77b4;stroke:#ffffff;stroke-width:0.178885;" x="327.927273" xlink:href="#m0edde70c32" y="109.24092"/>
     <use style="fill:#1f77b4;stroke:#ffffff;stroke-width:0.178885;" x="330.970909" xlink:href="#m0edde70c32" y="109.24092"/>
     <use style="fill:#1f77b4;stroke:#ffffff;stroke-width:0.178885;" x="334.014545" xlink:href="#m0edde70c32" y="109.24092"/>
     <use style="fill:#1f77b4;stroke:#ffffff;stroke-width:0.178885;" x="337.058182" xlink:href="#m0edde70c32" y="109.24092"/>
     <use style="fill:#1f77b4;stroke:#ffffff;stroke-width:0.178885;" x="340.101818" xlink:href="#m0edde70c32" y="109.24092"/>
     <use style="fill:#1f77b4;stroke:#ffffff;stroke-width:0.178885;" x="343.145455" xlink:href="#m0edde70c32" y="89.55567"/>
     <use style="fill:#1f77b4;stroke:#ffffff;stroke-width:0.178885;" x="346.189091" xlink:href="#m0edde70c32" y="89.55567"/>
     <use style="fill:#1f77b4;stroke:#ffffff;stroke-width:0.178885;" x="349.232727" xlink:href="#m0edde70c32" y="89.55567"/>
     <use style="fill:#1f77b4;stroke:#ffffff;stroke-width:0.178885;" x="352.276364" xlink:href="#m0edde70c32" y="89.55567"/>
     <use style="fill:#1f77b4;stroke:#ffffff;stroke-width:0.178885;" x="355.32" xlink:href="#m0edde70c32" y="89.55567"/>
     <use style="fill:#1f77b4;stroke:#ffffff;stroke-width:0.178885;" x="358.363636" xlink:href="#m0edde70c32" y="68.229981"/>
     <use style="fill:#1f77b4;stroke:#ffffff;stroke-width:0.178885;" x="361.407273" xlink:href="#m0edde70c32" y="68.229981"/>
     <use style="fill:#1f77b4;stroke:#ffffff;stroke-width:0.178885;" x="364.450909" xlink:href="#m0edde70c32" y="68.229981"/>
     <use style="fill:#1f77b4;stroke:#ffffff;stroke-width:0.178885;" x="367.494545" xlink:href="#m0edde70c32" y="68.229981"/>
     <use style="fill:#1f77b4;stroke:#ffffff;stroke-width:0.178885;" x="370.538182" xlink:href="#m0edde70c32" y="68.229981"/>
     <use style="fill:#1f77b4;stroke:#ffffff;stroke-width:0.178885;" x="373.581818" xlink:href="#m0edde70c32" y="44.443636"/>
    </g>
   </g>
   <g id="matplotlib.axis_1">
    <g id="xtick_1">
     <g id="line2d_1">
      <path clip-path="url(#pf958fbeafc)" d="M 69.218182 252 
L 69.218182 34.56 
" style="fill:none;stroke:#b0b0b0;stroke-linecap:square;stroke-width:0.8;"/>
     </g>
     <g id="line2d_2">
      <defs>
       <path d="M 0 0 
L 0 3.5 
" id="m4a6646b606" style="stroke:#000000;stroke-width:0.8;"/>
      </defs>
      <g>
       <use style="stroke:#000000;stroke-width:0.8;" x="69.218182" xlink:href="#m4a6646b606" y="252"/>
      </g>
     </g>
     <g id="text_1">
      <!-- 0 -->
      <g transform="translate(66.036932 266.598437)scale(0.1 -0.1)">
       <defs>
        <path d="M 2034 4250 
Q 1547 4250 1301 3770 
Q 1056 3291 1056 2328 
Q 1056 1369 1301 889 
Q 1547 409 2034 409 
Q 2525 409 2770 889 
Q 3016 1369 3016 2328 
Q 3016 3291 2770 3770 
Q 2525 4250 2034 4250 
z
M 2034 4750 
Q 2819 4750 3233 4129 
Q 3647 3509 3647 2328 
Q 3647 1150 3233 529 
Q 2819 -91 2034 -91 
Q 1250 -91 836 529 
Q 422 1150 422 2328 
Q 422 3509 836 4129 
Q 1250 4750 2034 4750 
z
" id="DejaVuSans-30" transform="scale(0.015625)"/>
       </defs>
       <use xlink:href="#DejaVuSans-30"/>
      </g>
     </g>
    </g>
    <g id="xtick_2">
     <g id="line2d_3">
      <path clip-path="url(#pf958fbeafc)" d="M 130.090909 252 
L 130.090909 34.56 
" style="fill:none;stroke:#b0b0b0;stroke-linecap:square;stroke-width:0.8;"/>
     </g>
     <g id="line2d_4">
      <g>
       <use style="stroke:#000000;stroke-width:0.8;" x="130.090909" xlink:href="#m4a6646b606" y="252"/>
      </g>
     </g>
     <g id="text_2">
      <!-- 20 -->
      <g transform="translate(123.728409 266.598437)scale(0.1 -0.1)">
       <defs>
        <path d="M 1228 531 
L 3431 531 
L 3431 0 
L 469 0 
L 469 531 
Q 828 903 1448 1529 
Q 2069 2156 2228 2338 
Q 2531 2678 2651 2914 
Q 2772 3150 2772 3378 
Q 2772 3750 2511 3984 
Q 2250 4219 1831 4219 
Q 1534 4219 1204 4116 
Q 875 4013 500 3803 
L 500 4441 
Q 881 4594 1212 4672 
Q 1544 4750 1819 4750 
Q 2544 4750 2975 4387 
Q 3406 4025 3406 3419 
Q 3406 3131 3298 2873 
Q 3191 2616 2906 2266 
Q 2828 2175 2409 1742 
Q 1991 1309 1228 531 
z
" id="DejaVuSans-32" transform="scale(0.015625)"/>
       </defs>
       <use xlink:href="#DejaVuSans-32"/>
       <use x="63.623047" xlink:href="#DejaVuSans-30"/>
      </g>
     </g>
    </g>
    <g id="xtick_3">
     <g id="line2d_5">
      <path clip-path="url(#pf958fbeafc)" d="M 190.963636 252 
L 190.963636 34.56 
" style="fill:none;stroke:#b0b0b0;stroke-linecap:square;stroke-width:0.8;"/>
     </g>
     <g id="line2d_6">
      <g>
       <use style="stroke:#000000;stroke-width:0.8;" x="190.963636" xlink:href="#m4a6646b606" y="252"/>
      </g>
     </g>
     <g id="text_3">
      <!-- 40 -->
      <g transform="translate(184.601136 266.598437)scale(0.1 -0.1)">
       <defs>
        <path d="M 2419 4116 
L 825 1625 
L 2419 1625 
L 2419 4116 
z
M 2253 4666 
L 3047 4666 
L 3047 1625 
L 3713 1625 
L 3713 1100 
L 3047 1100 
L 3047 0 
L 2419 0 
L 2419 1100 
L 313 1100 
L 313 1709 
L 2253 4666 
z
" id="DejaVuSans-34" transform="scale(0.015625)"/>
       </defs>
       <use xlink:href="#DejaVuSans-34"/>
       <use x="63.623047" xlink:href="#DejaVuSans-30"/>
      </g>
     </g>
    </g>
    <g id="xtick_4">
     <g id="line2d_7">
      <path clip-path="url(#pf958fbeafc)" d="M 251.836364 252 
L 251.836364 34.56 
" style="fill:none;stroke:#b0b0b0;stroke-linecap:square;stroke-width:0.8;"/>
     </g>
     <g id="line2d_8">
      <g>
       <use style="stroke:#000000;stroke-width:0.8;" x="251.836364" xlink:href="#m4a6646b606" y="252"/>
      </g>
     </g>
     <g id="text_4">
      <!-- 60 -->
      <g transform="translate(245.473864 266.598437)scale(0.1 -0.1)">
       <defs>
        <path d="M 2113 2584 
Q 1688 2584 1439 2293 
Q 1191 2003 1191 1497 
Q 1191 994 1439 701 
Q 1688 409 2113 409 
Q 2538 409 2786 701 
Q 3034 994 3034 1497 
Q 3034 2003 2786 2293 
Q 2538 2584 2113 2584 
z
M 3366 4563 
L 3366 3988 
Q 3128 4100 2886 4159 
Q 2644 4219 2406 4219 
Q 1781 4219 1451 3797 
Q 1122 3375 1075 2522 
Q 1259 2794 1537 2939 
Q 1816 3084 2150 3084 
Q 2853 3084 3261 2657 
Q 3669 2231 3669 1497 
Q 3669 778 3244 343 
Q 2819 -91 2113 -91 
Q 1303 -91 875 529 
Q 447 1150 447 2328 
Q 447 3434 972 4092 
Q 1497 4750 2381 4750 
Q 2619 4750 2861 4703 
Q 3103 4656 3366 4563 
z
" id="DejaVuSans-36" transform="scale(0.015625)"/>
       </defs>
       <use xlink:href="#DejaVuSans-36"/>
       <use x="63.623047" xlink:href="#DejaVuSans-30"/>
      </g>
     </g>
    </g>
    <g id="xtick_5">
     <g id="line2d_9">
      <path clip-path="url(#pf958fbeafc)" d="M 312.709091 252 
L 312.709091 34.56 
" style="fill:none;stroke:#b0b0b0;stroke-linecap:square;stroke-width:0.8;"/>
     </g>
     <g id="line2d_10">
      <g>
       <use style="stroke:#000000;stroke-width:0.8;" x="312.709091" xlink:href="#m4a6646b606" y="252"/>
      </g>
     </g>
     <g id="text_5">
      <!-- 80 -->
      <g transform="translate(306.346591 266.598437)scale(0.1 -0.1)">
       <defs>
        <path d="M 2034 2216 
Q 1584 2216 1326 1975 
Q 1069 1734 1069 1313 
Q 1069 891 1326 650 
Q 1584 409 2034 409 
Q 2484 409 2743 651 
Q 3003 894 3003 1313 
Q 3003 1734 2745 1975 
Q 2488 2216 2034 2216 
z
M 1403 2484 
Q 997 2584 770 2862 
Q 544 3141 544 3541 
Q 544 4100 942 4425 
Q 1341 4750 2034 4750 
Q 2731 4750 3128 4425 
Q 3525 4100 3525 3541 
Q 3525 3141 3298 2862 
Q 3072 2584 2669 2484 
Q 3125 2378 3379 2068 
Q 3634 1759 3634 1313 
Q 3634 634 3220 271 
Q 2806 -91 2034 -91 
Q 1263 -91 848 271 
Q 434 634 434 1313 
Q 434 1759 690 2068 
Q 947 2378 1403 2484 
z
M 1172 3481 
Q 1172 3119 1398 2916 
Q 1625 2713 2034 2713 
Q 2441 2713 2670 2916 
Q 2900 3119 2900 3481 
Q 2900 3844 2670 4047 
Q 2441 4250 2034 4250 
Q 1625 4250 1398 4047 
Q 1172 3844 1172 3481 
z
" id="DejaVuSans-38" transform="scale(0.015625)"/>
       </defs>
       <use xlink:href="#DejaVuSans-38"/>
       <use x="63.623047" xlink:href="#DejaVuSans-30"/>
      </g>
     </g>
    </g>
    <g id="xtick_6">
     <g id="line2d_11">
      <path clip-path="url(#pf958fbeafc)" d="M 373.581818 252 
L 373.581818 34.56 
" style="fill:none;stroke:#b0b0b0;stroke-linecap:square;stroke-width:0.8;"/>
     </g>
     <g id="line2d_12">
      <g>
       <use style="stroke:#000000;stroke-width:0.8;" x="373.581818" xlink:href="#m4a6646b606" y="252"/>
      </g>
     </g>
     <g id="text_6">
      <!-- 100 -->
      <g transform="translate(364.038068 266.598437)scale(0.1 -0.1)">
       <defs>
        <path d="M 794 531 
L 1825 531 
L 1825 4091 
L 703 3866 
L 703 4441 
L 1819 4666 
L 2450 4666 
L 2450 531 
L 3481 531 
L 3481 0 
L 794 0 
L 794 531 
z
" id="DejaVuSans-31" transform="scale(0.015625)"/>
       </defs>
       <use xlink:href="#DejaVuSans-31"/>
       <use x="63.623047" xlink:href="#DejaVuSans-30"/>
       <use x="127.246094" xlink:href="#DejaVuSans-30"/>
      </g>
     </g>
    </g>
    <g id="text_7">
     <!-- N -->
     <g transform="translate(217.659375 280.276563)scale(0.1 -0.1)">
      <defs>
       <path d="M 628 4666 
L 1478 4666 
L 3547 763 
L 3547 4666 
L 4159 4666 
L 4159 0 
L 3309 0 
L 1241 3903 
L 1241 0 
L 628 0 
L 628 4666 
z
" id="DejaVuSans-4e" transform="scale(0.015625)"/>
      </defs>
      <use xlink:href="#DejaVuSans-4e"/>
     </g>
    </g>
   </g>
   <g id="matplotlib.axis_2">
    <g id="ytick_1">
     <g id="line2d_13">
      <path clip-path="url(#pf958fbeafc)" d="M 54 242.936582 
L 388.8 242.936582 
" style="fill:none;stroke:#b0b0b0;stroke-linecap:square;stroke-width:0.8;"/>
     </g>
     <g id="line2d_14">
      <defs>
       <path d="M 0 0 
L -3.5 0 
" id="m2fdbb716ef" style="stroke:#000000;stroke-width:0.8;"/>
      </defs>
      <g>
       <use style="stroke:#000000;stroke-width:0.8;" x="54" xlink:href="#m2fdbb716ef" y="242.936582"/>
      </g>
     </g>
     <g id="text_8">
      <!-- 0 -->
      <g transform="translate(40.6375 246.735801)scale(0.1 -0.1)">
       <use xlink:href="#DejaVuSans-30"/>
      </g>
     </g>
    </g>
    <g id="ytick_2">
     <g id="line2d_15">
      <path clip-path="url(#pf958fbeafc)" d="M 54 201.925643 
L 388.8 201.925643 
" style="fill:none;stroke:#b0b0b0;stroke-linecap:square;stroke-width:0.8;"/>
     </g>
     <g id="line2d_16">
      <g>
       <use style="stroke:#000000;stroke-width:0.8;" x="54" xlink:href="#m2fdbb716ef" y="201.925643"/>
      </g>
     </g>
     <g id="text_9">
      <!-- 50 -->
      <g transform="translate(34.275 205.724862)scale(0.1 -0.1)">
       <defs>
        <path d="M 691 4666 
L 3169 4666 
L 3169 4134 
L 1269 4134 
L 1269 2991 
Q 1406 3038 1543 3061 
Q 1681 3084 1819 3084 
Q 2600 3084 3056 2656 
Q 3513 2228 3513 1497 
Q 3513 744 3044 326 
Q 2575 -91 1722 -91 
Q 1428 -91 1123 -41 
Q 819 9 494 109 
L 494 744 
Q 775 591 1075 516 
Q 1375 441 1709 441 
Q 2250 441 2565 725 
Q 2881 1009 2881 1497 
Q 2881 1984 2565 2268 
Q 2250 2553 1709 2553 
Q 1456 2553 1204 2497 
Q 953 2441 691 2322 
L 691 4666 
z
" id="DejaVuSans-35" transform="scale(0.015625)"/>
       </defs>
       <use xlink:href="#DejaVuSans-35"/>
       <use x="63.623047" xlink:href="#DejaVuSans-30"/>
      </g>
     </g>
    </g>
    <g id="ytick_3">
     <g id="line2d_17">
      <path clip-path="url(#pf958fbeafc)" d="M 54 160.914704 
L 388.8 160.914704 
" style="fill:none;stroke:#b0b0b0;stroke-linecap:square;stroke-width:0.8;"/>
     </g>
     <g id="line2d_18">
      <g>
       <use style="stroke:#000000;stroke-width:0.8;" x="54" xlink:href="#m2fdbb716ef" y="160.914704"/>
      </g>
     </g>
     <g id="text_10">
      <!-- 100 -->
      <g transform="translate(27.9125 164.713923)scale(0.1 -0.1)">
       <use xlink:href="#DejaVuSans-31"/>
       <use x="63.623047" xlink:href="#DejaVuSans-30"/>
       <use x="127.246094" xlink:href="#DejaVuSans-30"/>
      </g>
     </g>
    </g>
    <g id="ytick_4">
     <g id="line2d_19">
      <path clip-path="url(#pf958fbeafc)" d="M 54 119.903765 
L 388.8 119.903765 
" style="fill:none;stroke:#b0b0b0;stroke-linecap:square;stroke-width:0.8;"/>
     </g>
     <g id="line2d_20">
      <g>
       <use style="stroke:#000000;stroke-width:0.8;" x="54" xlink:href="#m2fdbb716ef" y="119.903765"/>
      </g>
     </g>
     <g id="text_11">
      <!-- 150 -->
      <g transform="translate(27.9125 123.702983)scale(0.1 -0.1)">
       <use xlink:href="#DejaVuSans-31"/>
       <use x="63.623047" xlink:href="#DejaVuSans-35"/>
       <use x="127.246094" xlink:href="#DejaVuSans-30"/>
      </g>
     </g>
    </g>
    <g id="ytick_5">
     <g id="line2d_21">
      <path clip-path="url(#pf958fbeafc)" d="M 54 78.892825 
L 388.8 78.892825 
" style="fill:none;stroke:#b0b0b0;stroke-linecap:square;stroke-width:0.8;"/>
     </g>
     <g id="line2d_22">
      <g>
       <use style="stroke:#000000;stroke-width:0.8;" x="54" xlink:href="#m2fdbb716ef" y="78.892825"/>
      </g>
     </g>
     <g id="text_12">
      <!-- 200 -->
      <g transform="translate(27.9125 82.692044)scale(0.1 -0.1)">
       <use xlink:href="#DejaVuSans-32"/>
       <use x="63.623047" xlink:href="#DejaVuSans-30"/>
       <use x="127.246094" xlink:href="#DejaVuSans-30"/>
      </g>
     </g>
    </g>
    <g id="ytick_6">
     <g id="line2d_23">
      <path clip-path="url(#pf958fbeafc)" d="M 54 37.881886 
L 388.8 37.881886 
" style="fill:none;stroke:#b0b0b0;stroke-linecap:square;stroke-width:0.8;"/>
     </g>
     <g id="line2d_24">
      <g>
       <use style="stroke:#000000;stroke-width:0.8;" x="54" xlink:href="#m2fdbb716ef" y="37.881886"/>
      </g>
     </g>
     <g id="text_13">
      <!-- 250 -->
      <g transform="translate(27.9125 41.681105)scale(0.1 -0.1)">
       <use xlink:href="#DejaVuSans-32"/>
       <use x="63.623047" xlink:href="#DejaVuSans-35"/>
       <use x="127.246094" xlink:href="#DejaVuSans-30"/>
      </g>
     </g>
    </g>
    <g id="text_14">
     <!-- Combinations -->
     <g transform="translate(21.832812 177.679219)rotate(-90)scale(0.1 -0.1)">
      <defs>
       <path d="M 4122 4306 
L 4122 3641 
Q 3803 3938 3442 4084 
Q 3081 4231 2675 4231 
Q 1875 4231 1450 3742 
Q 1025 3253 1025 2328 
Q 1025 1406 1450 917 
Q 1875 428 2675 428 
Q 3081 428 3442 575 
Q 3803 722 4122 1019 
L 4122 359 
Q 3791 134 3420 21 
Q 3050 -91 2638 -91 
Q 1578 -91 968 557 
Q 359 1206 359 2328 
Q 359 3453 968 4101 
Q 1578 4750 2638 4750 
Q 3056 4750 3426 4639 
Q 3797 4528 4122 4306 
z
" id="DejaVuSans-43" transform="scale(0.015625)"/>
       <path d="M 1959 3097 
Q 1497 3097 1228 2736 
Q 959 2375 959 1747 
Q 959 1119 1226 758 
Q 1494 397 1959 397 
Q 2419 397 2687 759 
Q 2956 1122 2956 1747 
Q 2956 2369 2687 2733 
Q 2419 3097 1959 3097 
z
M 1959 3584 
Q 2709 3584 3137 3096 
Q 3566 2609 3566 1747 
Q 3566 888 3137 398 
Q 2709 -91 1959 -91 
Q 1206 -91 779 398 
Q 353 888 353 1747 
Q 353 2609 779 3096 
Q 1206 3584 1959 3584 
z
" id="DejaVuSans-6f" transform="scale(0.015625)"/>
       <path d="M 3328 2828 
Q 3544 3216 3844 3400 
Q 4144 3584 4550 3584 
Q 5097 3584 5394 3201 
Q 5691 2819 5691 2113 
L 5691 0 
L 5113 0 
L 5113 2094 
Q 5113 2597 4934 2840 
Q 4756 3084 4391 3084 
Q 3944 3084 3684 2787 
Q 3425 2491 3425 1978 
L 3425 0 
L 2847 0 
L 2847 2094 
Q 2847 2600 2669 2842 
Q 2491 3084 2119 3084 
Q 1678 3084 1418 2786 
Q 1159 2488 1159 1978 
L 1159 0 
L 581 0 
L 581 3500 
L 1159 3500 
L 1159 2956 
Q 1356 3278 1631 3431 
Q 1906 3584 2284 3584 
Q 2666 3584 2933 3390 
Q 3200 3197 3328 2828 
z
" id="DejaVuSans-6d" transform="scale(0.015625)"/>
       <path d="M 3116 1747 
Q 3116 2381 2855 2742 
Q 2594 3103 2138 3103 
Q 1681 3103 1420 2742 
Q 1159 2381 1159 1747 
Q 1159 1113 1420 752 
Q 1681 391 2138 391 
Q 2594 391 2855 752 
Q 3116 1113 3116 1747 
z
M 1159 2969 
Q 1341 3281 1617 3432 
Q 1894 3584 2278 3584 
Q 2916 3584 3314 3078 
Q 3713 2572 3713 1747 
Q 3713 922 3314 415 
Q 2916 -91 2278 -91 
Q 1894 -91 1617 61 
Q 1341 213 1159 525 
L 1159 0 
L 581 0 
L 581 4863 
L 1159 4863 
L 1159 2969 
z
" id="DejaVuSans-62" transform="scale(0.015625)"/>
       <path d="M 603 3500 
L 1178 3500 
L 1178 0 
L 603 0 
L 603 3500 
z
M 603 4863 
L 1178 4863 
L 1178 4134 
L 603 4134 
L 603 4863 
z
" id="DejaVuSans-69" transform="scale(0.015625)"/>
       <path d="M 3513 2113 
L 3513 0 
L 2938 0 
L 2938 2094 
Q 2938 2591 2744 2837 
Q 2550 3084 2163 3084 
Q 1697 3084 1428 2787 
Q 1159 2491 1159 1978 
L 1159 0 
L 581 0 
L 581 3500 
L 1159 3500 
L 1159 2956 
Q 1366 3272 1645 3428 
Q 1925 3584 2291 3584 
Q 2894 3584 3203 3211 
Q 3513 2838 3513 2113 
z
" id="DejaVuSans-6e" transform="scale(0.015625)"/>
       <path d="M 2194 1759 
Q 1497 1759 1228 1600 
Q 959 1441 959 1056 
Q 959 750 1161 570 
Q 1363 391 1709 391 
Q 2188 391 2477 730 
Q 2766 1069 2766 1631 
L 2766 1759 
L 2194 1759 
z
M 3341 1997 
L 3341 0 
L 2766 0 
L 2766 531 
Q 2569 213 2275 61 
Q 1981 -91 1556 -91 
Q 1019 -91 701 211 
Q 384 513 384 1019 
Q 384 1609 779 1909 
Q 1175 2209 1959 2209 
L 2766 2209 
L 2766 2266 
Q 2766 2663 2505 2880 
Q 2244 3097 1772 3097 
Q 1472 3097 1187 3025 
Q 903 2953 641 2809 
L 641 3341 
Q 956 3463 1253 3523 
Q 1550 3584 1831 3584 
Q 2591 3584 2966 3190 
Q 3341 2797 3341 1997 
z
" id="DejaVuSans-61" transform="scale(0.015625)"/>
       <path d="M 1172 4494 
L 1172 3500 
L 2356 3500 
L 2356 3053 
L 1172 3053 
L 1172 1153 
Q 1172 725 1289 603 
Q 1406 481 1766 481 
L 2356 481 
L 2356 0 
L 1766 0 
Q 1100 0 847 248 
Q 594 497 594 1153 
L 594 3053 
L 172 3053 
L 172 3500 
L 594 3500 
L 594 4494 
L 1172 4494 
z
" id="DejaVuSans-74" transform="scale(0.015625)"/>
       <path d="M 2834 3397 
L 2834 2853 
Q 2591 2978 2328 3040 
Q 2066 3103 1784 3103 
Q 1356 3103 1142 2972 
Q 928 2841 928 2578 
Q 928 2378 1081 2264 
Q 1234 2150 1697 2047 
L 1894 2003 
Q 2506 1872 2764 1633 
Q 3022 1394 3022 966 
Q 3022 478 2636 193 
Q 2250 -91 1575 -91 
Q 1294 -91 989 -36 
Q 684 19 347 128 
L 347 722 
Q 666 556 975 473 
Q 1284 391 1588 391 
Q 1994 391 2212 530 
Q 2431 669 2431 922 
Q 2431 1156 2273 1281 
Q 2116 1406 1581 1522 
L 1381 1569 
Q 847 1681 609 1914 
Q 372 2147 372 2553 
Q 372 3047 722 3315 
Q 1072 3584 1716 3584 
Q 2034 3584 2315 3537 
Q 2597 3491 2834 3397 
z
" id="DejaVuSans-73" transform="scale(0.015625)"/>
      </defs>
      <use xlink:href="#DejaVuSans-43"/>
      <use x="69.824219" xlink:href="#DejaVuSans-6f"/>
      <use x="131.005859" xlink:href="#DejaVuSans-6d"/>
      <use x="228.417969" xlink:href="#DejaVuSans-62"/>
      <use x="291.894531" xlink:href="#DejaVuSans-69"/>
      <use x="319.677734" xlink:href="#DejaVuSans-6e"/>
      <use x="383.056641" xlink:href="#DejaVuSans-61"/>
      <use x="444.335938" xlink:href="#DejaVuSans-74"/>
      <use x="483.544922" xlink:href="#DejaVuSans-69"/>
      <use x="511.328125" xlink:href="#DejaVuSans-6f"/>
      <use x="572.509766" xlink:href="#DejaVuSans-6e"/>
      <use x="635.888672" xlink:href="#DejaVuSans-73"/>
     </g>
    </g>
   </g>
   <g id="patch_3">
    <path d="M 54 252 
L 54 34.56 
" style="fill:none;stroke:#000000;stroke-linecap:square;stroke-linejoin:miter;stroke-width:0.8;"/>
   </g>
   <g id="patch_4">
    <path d="M 388.8 252 
L 388.8 34.56 
" style="fill:none;stroke:#000000;stroke-linecap:square;stroke-linejoin:miter;stroke-width:0.8;"/>
   </g>
   <g id="patch_5">
    <path d="M 54 252 
L 388.8 252 
" style="fill:none;stroke:#000000;stroke-linecap:square;stroke-linejoin:miter;stroke-width:0.8;"/>
   </g>
   <g id="patch_6">
    <path d="M 54 34.56 
L 388.8 34.56 
" style="fill:none;stroke:#000000;stroke-linecap:square;stroke-linejoin:miter;stroke-width:0.8;"/>
   </g>
   <g id="text_15">
    <!-- Number of combinations as a function of N -->
    <g transform="translate(92.51625 28.56)scale(0.12 -0.12)">
     <defs>
      <path d="M 544 1381 
L 544 3500 
L 1119 3500 
L 1119 1403 
Q 1119 906 1312 657 
Q 1506 409 1894 409 
Q 2359 409 2629 706 
Q 2900 1003 2900 1516 
L 2900 3500 
L 3475 3500 
L 3475 0 
L 2900 0 
L 2900 538 
Q 2691 219 2414 64 
Q 2138 -91 1772 -91 
Q 1169 -91 856 284 
Q 544 659 544 1381 
z
M 1991 3584 
L 1991 3584 
z
" id="DejaVuSans-75" transform="scale(0.015625)"/>
      <path d="M 3597 1894 
L 3597 1613 
L 953 1613 
Q 991 1019 1311 708 
Q 1631 397 2203 397 
Q 2534 397 2845 478 
Q 3156 559 3463 722 
L 3463 178 
Q 3153 47 2828 -22 
Q 2503 -91 2169 -91 
Q 1331 -91 842 396 
Q 353 884 353 1716 
Q 353 2575 817 3079 
Q 1281 3584 2069 3584 
Q 2775 3584 3186 3129 
Q 3597 2675 3597 1894 
z
M 3022 2063 
Q 3016 2534 2758 2815 
Q 2500 3097 2075 3097 
Q 1594 3097 1305 2825 
Q 1016 2553 972 2059 
L 3022 2063 
z
" id="DejaVuSans-65" transform="scale(0.015625)"/>
      <path d="M 2631 2963 
Q 2534 3019 2420 3045 
Q 2306 3072 2169 3072 
Q 1681 3072 1420 2755 
Q 1159 2438 1159 1844 
L 1159 0 
L 581 0 
L 581 3500 
L 1159 3500 
L 1159 2956 
Q 1341 3275 1631 3429 
Q 1922 3584 2338 3584 
Q 2397 3584 2469 3576 
Q 2541 3569 2628 3553 
L 2631 2963 
z
" id="DejaVuSans-72" transform="scale(0.015625)"/>
      <path id="DejaVuSans-20" transform="scale(0.015625)"/>
      <path d="M 2375 4863 
L 2375 4384 
L 1825 4384 
Q 1516 4384 1395 4259 
Q 1275 4134 1275 3809 
L 1275 3500 
L 2222 3500 
L 2222 3053 
L 1275 3053 
L 1275 0 
L 697 0 
L 697 3053 
L 147 3053 
L 147 3500 
L 697 3500 
L 697 3744 
Q 697 4328 969 4595 
Q 1241 4863 1831 4863 
L 2375 4863 
z
" id="DejaVuSans-66" transform="scale(0.015625)"/>
      <path d="M 3122 3366 
L 3122 2828 
Q 2878 2963 2633 3030 
Q 2388 3097 2138 3097 
Q 1578 3097 1268 2742 
Q 959 2388 959 1747 
Q 959 1106 1268 751 
Q 1578 397 2138 397 
Q 2388 397 2633 464 
Q 2878 531 3122 666 
L 3122 134 
Q 2881 22 2623 -34 
Q 2366 -91 2075 -91 
Q 1284 -91 818 406 
Q 353 903 353 1747 
Q 353 2603 823 3093 
Q 1294 3584 2113 3584 
Q 2378 3584 2631 3529 
Q 2884 3475 3122 3366 
z
" id="DejaVuSans-63" transform="scale(0.015625)"/>
     </defs>
     <use xlink:href="#DejaVuSans-4e"/>
     <use x="74.804688" xlink:href="#DejaVuSans-75"/>
     <use x="138.183594" xlink:href="#DejaVuSans-6d"/>
     <use x="235.595703" xlink:href="#DejaVuSans-62"/>
     <use x="299.072266" xlink:href="#DejaVuSans-65"/>
     <use x="360.595703" xlink:href="#DejaVuSans-72"/>
     <use x="401.708984" xlink:href="#DejaVuSans-20"/>
     <use x="433.496094" xlink:href="#DejaVuSans-6f"/>
     <use x="494.677734" xlink:href="#DejaVuSans-66"/>
     <use x="529.882812" xlink:href="#DejaVuSans-20"/>
     <use x="561.669922" xlink:href="#DejaVuSans-63"/>
     <use x="616.650391" xlink:href="#DejaVuSans-6f"/>
     <use x="677.832031" xlink:href="#DejaVuSans-6d"/>
     <use x="775.244141" xlink:href="#DejaVuSans-62"/>
     <use x="838.720703" xlink:href="#DejaVuSans-69"/>
     <use x="866.503906" xlink:href="#DejaVuSans-6e"/>
     <use x="929.882812" xlink:href="#DejaVuSans-61"/>
     <use x="991.162109" xlink:href="#DejaVuSans-74"/>
     <use x="1030.371094" xlink:href="#DejaVuSans-69"/>
     <use x="1058.154297" xlink:href="#DejaVuSans-6f"/>
     <use x="1119.335938" xlink:href="#DejaVuSans-6e"/>
     <use x="1182.714844" xlink:href="#DejaVuSans-73"/>
     <use x="1234.814453" xlink:href="#DejaVuSans-20"/>
     <use x="1266.601562" xlink:href="#DejaVuSans-61"/>
     <use x="1327.880859" xlink:href="#DejaVuSans-73"/>
     <use x="1379.980469" xlink:href="#DejaVuSans-20"/>
     <use x="1411.767578" xlink:href="#DejaVuSans-61"/>
     <use x="1473.046875" xlink:href="#DejaVuSans-20"/>
     <use x="1504.833984" xlink:href="#DejaVuSans-66"/>
     <use x="1540.039062" xlink:href="#DejaVuSans-75"/>
     <use x="1603.417969" xlink:href="#DejaVuSans-6e"/>
     <use x="1666.796875" xlink:href="#DejaVuSans-63"/>
     <use x="1721.777344" xlink:href="#DejaVuSans-74"/>
     <use x="1760.986328" xlink:href="#DejaVuSans-69"/>
     <use x="1788.769531" xlink:href="#DejaVuSans-6f"/>
     <use x="1849.951172" xlink:href="#DejaVuSans-6e"/>
     <use x="1913.330078" xlink:href="#DejaVuSans-20"/>
     <use x="1945.117188" xlink:href="#DejaVuSans-6f"/>
     <use x="2006.298828" xlink:href="#DejaVuSans-66"/>
     <use x="2041.503906" xlink:href="#DejaVuSans-20"/>
     <use x="2073.291016" xlink:href="#DejaVuSans-4e"/>
    </g>
   </g>
  </g>
 </g>
 <defs>
  <clipPath id="pf958fbeafc">
   <rect height="217.44" width="334.8" x="54" y="34.56"/>
  </clipPath>
 </defs>
</svg>
